<?xml version="1.0" standalone="no"?>
<!DOCTYPE svg PUBLIC "-//W3C//DTD SVG 20010904//EN"
 "http://www.w3.org/TR/2001/REC-SVG-20010904/DTD/svg10.dtd">
<svg version="1.0" xmlns="http://www.w3.org/2000/svg"
 width="1064.000000pt" height="1064.000000pt" viewBox="0 0 1064.000000 1064.000000"
 preserveAspectRatio="xMidYMid meet">
<metadata>
Created by potrace 1.11, written by Peter Selinger 2001-2013
</metadata>
<g transform="translate(0.000000,1064.000000) scale(0.100000,-0.100000)"
fill="#000000" stroke="none">
<path d="M1037 9586 c-26 -7 -50 -14 -52 -15 -3 0 -11 -1 -18 -1 -13 0 -18
-62 -7 -74 3 -2 34 2 70 9 36 8 68 14 72 15 4 0 6 -109 5 -242 l-2 -243 -65 0
-65 -1 -3 -37 -3 -37 181 0 181 0 -3 37 -3 36 -67 -1 -67 -1 0 262 c0 144 0
272 -1 285 0 20 -5 22 -52 21 -29 0 -75 -6 -101 -13z"/>
<path d="M1856 9395 c-98 -25 -166 -112 -166 -214 0 -241 324 -305 422 -84 72
164 -81 342 -256 298z"/>
<path d="M2587 9400 c-9 -4 -12 -61 -12 -220 l1 -215 667 -3 667 -2 -2 222 -3
222 -653 1 c-359 0 -658 -2 -665 -5z"/>
<path d="M4355 9402 c-3 -3 -5 -104 -5 -224 l0 -218 53 0 c47 -1 1042 -1 1215
0 l72 0 -2 223 -3 222 -662 1 c-365 0 -665 -1 -668 -4z"/>
<path d="M6134 9401 c-2 -2 -4 -103 -4 -223 l0 -218 668 0 667 0 0 214 c0 118
-4 218 -8 222 -8 9 -1315 13 -1323 5z"/>
<path d="M7920 9402 c-6 -2 -10 -86 -10 -223 l0 -219 667 2 666 3 0 205 c-1
113 -2 212 -2 220 -1 13 -81 15 -656 15 -360 0 -659 -1 -665 -3z"/>
<path d="M990 8706 c-78 -22 -86 -29 -82 -76 3 -29 8 -38 16 -32 27 22 125 49
169 47 116 -4 157 -113 82 -215 -14 -19 -80 -90 -147 -158 -108 -111 -121
-128 -124 -163 l-3 -39 203 0 203 0 -1 35 c-1 40 13 37 -168 36 -65 0 -118 3
-118 7 0 4 52 61 115 127 138 144 170 199 163 279 -5 66 -41 118 -96 142 -47
21 -153 26 -212 10z"/>
<path d="M1865 8510 c-210 -47 -240 -335 -43 -420 107 -46 231 -1 284 103 21
40 28 115 15 163 -28 103 -151 178 -256 154z"/>
<path d="M2748 8509 c-120 -27 -197 -158 -162 -277 18 -63 56 -107 119 -137
45 -23 64 -26 108 -22 120 11 198 92 203 211 6 127 -73 210 -216 231 -8 1 -32
-2 -52 -6z"/>
<path d="M3471 8510 c-4 -3 -7 -102 -6 -220 l0 -215 667 -3 667 -2 -2 222 -2
223 -658 0 c-363 0 -662 -2 -666 -5z"/>
<path d="M5243 8293 l0 -223 667 0 666 0 0 223 0 222 -666 0 -667 0 0 -222z"/>
<path d="M7024 8511 c-2 -2 -4 -103 -4 -223 l0 -218 665 0 c366 0 665 3 666 8
7 50 2 425 -6 430 -11 7 -1314 10 -1321 3z"/>
<path d="M1023 7838 c-96 -13 -108 -19 -108 -62 0 -20 1 -36 2 -36 1 0 28 7
60 15 63 17 146 18 178 2 68 -32 75 -135 12 -169 -12 -6 -53 -14 -92 -17 -70
-6 -70 -6 -70 -36 0 -30 0 -30 74 -37 41 -4 85 -15 97 -23 69 -45 67 -153 -2
-196 -48 -29 -142 -33 -214 -9 -30 10 -56 17 -57 16 -2 -1 -5 -17 -7 -35 -3
-30 0 -35 31 -48 19 -8 70 -17 113 -20 167 -12 270 61 270 193 0 76 -40 135
-105 155 -19 6 -18 7 5 17 60 27 90 76 85 139 -9 113 -114 171 -272 151z"/>
<path d="M1860 7624 c-94 -35 -146 -86 -166 -166 -12 -46 -12 -57 1 -120 18
-79 124 -158 215 -158 58 0 140 39 173 83 88 117 49 281 -81 343 -38 18 -115
28 -142 18z"/>
<path d="M2721 7613 c-121 -43 -181 -196 -121 -312 35 -69 119 -120 197 -121
158 -1 270 171 204 316 -34 75 -132 136 -213 133 -13 0 -43 -8 -67 -16z"/>
<path d="M3628 7621 c-37 -12 -89 -45 -110 -70 -79 -93 -68 -239 23 -316 41
-34 72 -46 131 -52 61 -6 111 11 161 56 119 107 96 290 -46 362 -44 23 -120
32 -159 20z"/>
<path d="M4357 7623 c-4 -3 -7 -105 -7 -225 l0 -218 670 0 670 0 0 225 0 225
-663 0 c-365 0 -667 -3 -670 -7z"/>
<path d="M6130 7405 l0 -225 669 0 669 0 -2 223 -1 222 -667 3 -668 2 0 -225z"/>
<path d="M1089 6843 c-31 -49 -86 -133 -121 -188 -36 -55 -68 -106 -73 -114
-5 -8 -10 -34 -11 -58 l-3 -43 145 0 145 0 -1 -47 c-4 -107 -5 -105 42 -101
l43 3 -2 72 -1 72 47 3 c47 3 51 8 42 61 0 4 -20 7 -44 7 l-43 0 -1 208 0 207
-54 3 -54 2 -56 -87z m79 -183 l-3 -145 -104 -3 c-85 -2 -102 0 -98 11 3 8 38
65 77 128 40 63 84 133 98 157 33 53 34 51 30 -148z"/>
<path d="M1840 6724 c-120 -36 -188 -191 -132 -301 41 -79 104 -123 184 -128
70 -4 116 14 170 65 93 91 90 233 -7 319 -62 54 -135 69 -215 45z"/>
<path d="M2721 6722 c-55 -18 -117 -82 -133 -136 -41 -146 48 -281 193 -291
71 -5 118 13 171 66 87 87 92 204 12 297 -59 69 -154 94 -243 64z"/>
<path d="M3591 6713 c-176 -84 -164 -330 20 -407 37 -15 117 -14 160 2 78 30
146 139 136 216 -10 71 -16 89 -45 125 -66 82 -177 108 -271 64z"/>
<path d="M4522 6730 c-140 -32 -212 -204 -136 -327 44 -70 110 -108 188 -107
132 1 220 90 219 221 0 51 -5 71 -29 110 -50 81 -150 124 -242 103z"/>
<path d="M5244 6516 l1 -221 665 0 665 0 0 220 0 220 -666 1 -666 1 1 -221z"/>
<path d="M926 5888 c1 -84 2 -156 3 -160 0 -4 18 -1 39 6 99 34 205 8 236 -58
34 -73 10 -158 -56 -192 -45 -23 -132 -25 -195 -3 -29 10 -53 16 -54 13 0 -2
-1 -19 -2 -36 -1 -49 34 -63 158 -63 85 0 106 3 142 22 152 82 143 315 -16
386 -42 18 -121 25 -160 12 -17 -5 -18 2 -18 74 l-1 79 117 0 c64 0 122 0 129
1 7 1 12 15 12 36 l0 35 -168 0 -167 0 1 -152z"/>
<path d="M1853 5841 c-146 -37 -214 -221 -125 -341 33 -45 56 -61 110 -81 141
-52 292 57 292 208 -1 142 -139 249 -277 214z"/>
<path d="M2745 5842 c-52 -7 -127 -71 -152 -132 -64 -148 61 -317 224 -304
178 14 264 225 148 361 -55 64 -125 88 -220 75z"/>
<path d="M3619 5836 c-95 -33 -152 -111 -152 -206 0 -166 156 -269 309 -205
132 55 174 228 82 339 -57 69 -159 100 -239 72z"/>
<path d="M4505 5837 c-46 -15 -103 -65 -126 -108 -79 -156 42 -337 216 -323
106 9 195 101 200 206 3 64 -9 101 -48 151 -53 68 -160 101 -242 74z"/>
<path d="M5410 5840 c-107 -31 -171 -119 -165 -227 8 -142 155 -243 288 -197
181 63 206 303 41 400 -46 27 -118 38 -164 24z"/>
<path d="M1107 5158 c-132 -23 -212 -142 -214 -318 -3 -163 40 -270 126 -318
60 -34 172 -24 232 20 84 63 101 226 32 316 -30 40 -99 72 -154 72 -46 0 -115
-26 -123 -46 -3 -8 -11 -14 -17 -14 -17 0 -4 81 21 129 45 89 139 113 261 66
13 -5 16 1 16 34 0 40 0 40 -51 51 -77 17 -77 17 -129 8z m77 -319 c75 -59 76
-196 2 -247 -68 -46 -160 -16 -185 61 -15 45 -6 126 17 156 39 54 118 68 166
30z"/>
<path d="M1689 4943 c-1 -26 -1 -384 0 -408 1 -20 5 -20 666 -21 l665 0 0 223
0 223 -665 0 c-626 0 -665 -1 -666 -17z"/>
<path d="M3612 4946 c-145 -51 -194 -249 -88 -358 49 -50 101 -72 168 -71 187
4 283 220 160 363 -20 24 -52 49 -71 58 -46 19 -126 23 -169 8z"/>
<path d="M4502 4946 c-48 -17 -99 -62 -123 -107 -77 -152 43 -336 211 -322
195 16 278 256 133 384 -19 17 -47 35 -62 41 -38 15 -121 17 -159 4z"/>
<path d="M5406 4953 c-36 -10 -94 -52 -119 -85 -34 -46 -45 -85 -41 -147 12
-190 241 -274 374 -138 46 46 73 120 65 180 -10 76 -68 153 -134 179 -31 12
-118 19 -145 11z"/>
<path d="M6275 4944 c-48 -18 -98 -65 -121 -112 -87 -183 102 -377 289 -298
77 32 142 139 131 218 -8 61 -13 74 -44 116 -54 75 -168 109 -255 76z"/>
<path d="M917 4282 c-12 -3 -17 -14 -17 -38 l0 -34 151 0 c139 0 151 -1 146
-17 -2 -10 -50 -136 -106 -281 -55 -144 -101 -264 -101 -266 0 -11 85 2 92 15
16 28 228 588 228 604 0 8 -3 15 -7 16 -24 3 -372 3 -386 1z"/>
<path d="M1689 4058 c-1 -18 -1 -400 0 -418 1 -13 82 -15 664 -15 l662 0 3
223 2 222 -665 0 c-525 0 -665 -3 -666 -12z"/>
<path d="M3465 3851 c0 -188 2 -220 15 -223 8 -2 308 -3 665 -3 l650 0 2 223
1 222 -667 0 -666 0 0 -219z"/>
<path d="M5383 4053 c-53 -18 -117 -88 -131 -143 -38 -149 65 -283 215 -281
124 1 217 96 217 220 -1 156 -150 258 -301 204z"/>
<path d="M6278 4056 c-104 -37 -168 -156 -139 -262 44 -165 251 -223 369 -103
164 168 -9 444 -230 365z"/>
<path d="M7155 4052 c-122 -57 -167 -191 -105 -311 22 -45 86 -97 128 -105 66
-13 82 -13 131 4 144 48 199 206 115 332 -55 84 -181 122 -269 80z"/>
<path d="M1016 3376 c-79 -29 -119 -94 -109 -173 6 -49 26 -80 70 -105 l35
-21 -29 -13 c-40 -19 -58 -35 -76 -71 -32 -60 -17 -153 31 -206 46 -49 167
-71 255 -46 147 40 177 260 44 319 l-38 17 35 21 c52 31 75 73 71 132 -6 99
-66 151 -180 157 -44 2 -84 -2 -109 -11z m148 -66 c53 -20 76 -103 42 -155
-30 -46 -126 -57 -181 -21 -27 18 -40 64 -30 112 11 60 96 92 169 64z m21
-290 c38 -23 53 -58 50 -112 -5 -67 -53 -108 -127 -108 -104 0 -159 82 -119
178 25 59 131 82 196 42z"/>
<path d="M1858 3182 c-124 -2 -168 -6 -169 -15 -4 -65 -1 -419 5 -424 3 -4
303 -7 666 -7 l660 -1 0 223 0 222 -177 0 c-98 0 -322 2 -498 3 -176 1 -395 1
-487 -1z"/>
<path d="M3545 3180 l-80 -5 1 -210 c1 -115 2 -214 3 -220 1 -7 225 -9 653 -8
359 0 658 2 664 2 8 1 12 67 12 221 l1 220 -102 0 c-56 0 -320 1 -587 3 -267
1 -521 0 -565 -3z"/>
<path d="M5243 2958 l0 -223 656 2 c361 1 661 2 667 2 7 1 10 71 10 219 l-1
217 -666 3 -666 2 0 -222z"/>
<path d="M7141 3154 c-86 -43 -135 -143 -117 -238 11 -55 65 -126 118 -154
144 -74 319 31 320 193 2 170 -169 275 -321 199z"/>
<path d="M8069 3171 c-133 -41 -195 -186 -135 -314 61 -128 244 -158 350 -59
92 86 87 251 -10 331 -56 45 -137 62 -205 42z"/>
<path d="M1016 2485 c-50 -17 -102 -69 -118 -114 -6 -20 -11 -63 -11 -97 2
-131 81 -205 212 -200 51 2 67 7 99 33 l39 32 -9 -52 c-17 -93 -52 -144 -113
-164 -34 -12 -129 -7 -156 7 -29 16 -34 12 -34 -27 0 -37 2 -38 45 -49 62 -16
158 -11 199 10 73 38 123 111 142 205 15 77 7 217 -17 285 -40 117 -160 173
-278 131z m130 -65 c42 -15 65 -53 71 -116 10 -99 -39 -164 -125 -164 -79 0
-132 78 -118 173 14 94 85 138 172 107z"/>
<path d="M1709 2290 c-22 -5 -22 -8 -23 -219 -1 -117 2 -215 6 -218 6 -3 1123
-6 1301 -3 l27 0 0 220 0 220 -47 0 c-650 4 -1247 4 -1264 0z"/>
<path d="M3478 2292 c-15 -3 -16 -28 -15 -225 l2 -221 658 0 c363 -1 663 2
668 5 5 3 8 98 7 224 l-3 219 -651 1 c-358 0 -658 -1 -666 -3z"/>
<path d="M5319 2292 l-76 -3 0 -215 c0 -118 4 -217 9 -220 7 -4 1012 -8 1278
-5 l45 1 1 220 c0 121 -2 220 -5 220 -43 3 -1197 4 -1252 2z"/>
<path d="M7088 2292 l-68 -3 0 -219 c0 -121 3 -220 8 -220 67 -5 1315 0 1320
4 3 4 6 103 6 221 l1 215 -55 0 c-427 3 -1160 4 -1212 2z"/>
<path d="M8942 2277 c-149 -55 -191 -248 -78 -362 53 -52 100 -69 176 -62 112
10 188 88 197 201 6 68 -8 112 -50 162 -54 64 -162 91 -245 61z"/>
<path d="M1044 1603 c-38 -8 -100 -70 -123 -124 -29 -67 -41 -213 -25 -308 14
-84 46 -143 97 -185 35 -28 45 -31 111 -31 61 0 78 4 109 25 75 51 111 152
109 307 -1 167 -48 270 -142 309 -26 11 -100 15 -136 7z m134 -92 c40 -41 57
-107 57 -231 0 -170 -33 -246 -112 -257 -102 -13 -155 85 -148 276 4 97 11
136 37 183 24 42 49 56 100 57 28 1 44 -6 66 -28z"/>
<path d="M1699 1402 c-12 -2 -14 -39 -13 -217 0 -118 3 -217 6 -221 5 -4 976
-8 1286 -4 l42 0 -2 222 -3 222 -651 0 c-358 1 -657 0 -665 -2z"/>
<path d="M3471 1400 c-9 -6 -8 -426 1 -435 5 -5 962 -9 1285 -5 l42 0 -1 220
c0 161 -3 220 -11 221 -49 4 -1310 3 -1316 -1z"/>
<path d="M5244 1401 c-2 -2 -4 -103 -4 -223 0 -167 3 -218 13 -219 16 -1 1264
-1 1299 0 l28 1 -3 223 -2 222 -663 0 c-365 1 -665 -1 -668 -4z"/>
<path d="M7030 1402 c-6 -2 -10 -86 -10 -223 l0 -219 48 -1 c51 0 1247 0 1272
1 13 0 15 30 14 215 0 118 -4 218 -7 222 -7 7 -1297 11 -1317 5z"/>
<path d="M8808 1399 c-10 -7 -15 -425 -5 -435 4 -5 868 -7 1260 -4 l67 0 -2
222 -3 222 -653 0 c-360 1 -658 -2 -664 -5z"/>
</g>
</svg>
