<?xml version="1.0" standalone="no"?>
<!DOCTYPE svg PUBLIC "-//W3C//DTD SVG 20010904//EN"
 "http://www.w3.org/TR/2001/REC-SVG-20010904/DTD/svg10.dtd">
<svg version="1.0" xmlns="http://www.w3.org/2000/svg"
 width="1030.000000pt" height="1030.000000pt" viewBox="0 0 1030.000000 1030.000000"
 preserveAspectRatio="xMidYMid meet">
<metadata>
Created by potrace 1.11, written by Peter Selinger 2001-2013
</metadata>
<g transform="translate(0.000000,1030.000000) scale(0.100000,-0.100000)"
fill="#000000" stroke="none">
<path d="M629 9516 c-73 -16 -76 -19 -71 -60 4 -31 7 -35 26 -31 65 15 112 25
119 25 4 0 7 -110 7 -245 l0 -245 -70 0 -70 0 0 -35 0 -35 180 0 180 0 0 35 0
35 -70 0 -70 0 0 285 0 285 -52 -1 c-29 -1 -78 -7 -109 -13z"/>
<path d="M3957 9333 c-4 -3 -7 -105 -7 -225 l0 -218 670 0 670 0 -2 223 -3
222 -661 3 c-363 1 -664 -1 -667 -5z"/>
<path d="M1415 9311 c-49 -22 -99 -77 -115 -126 -20 -61 -9 -148 26 -198 38
-54 119 -97 185 -97 142 0 248 144 209 284 -35 126 -183 193 -305 137z"/>
<path d="M2180 9110 l0 -220 665 0 665 0 0 220 0 220 -665 0 -665 0 0 -220z"/>
<path d="M5730 9110 l0 -220 668 0 667 0 -3 220 -3 220 -664 0 -665 0 0 -220z"/>
<path d="M7510 9110 l0 -220 665 0 665 0 0 220 0 220 -665 0 -665 0 0 -220z"/>
<path d="M573 8630 l-63 -21 0 -44 0 -44 53 24 c139 63 250 26 250 -83 0 -59
-24 -92 -173 -247 -126 -130 -140 -148 -140 -180 l0 -35 205 0 205 0 0 35 0
35 -151 0 -151 0 113 120 c154 163 174 195 174 280 0 57 -4 72 -27 102 -55 72
-178 96 -295 58z"/>
<path d="M3077 8443 c-16 -4 -17 -21 -15 -221 l3 -217 668 -3 667 -2 -2 222
-3 223 -650 1 c-357 1 -658 0 -668 -3z"/>
<path d="M4846 8443 c-3 -3 -6 -105 -6 -225 l0 -218 670 0 670 0 -2 223 -3
222 -661 2 c-364 2 -664 0 -668 -4z"/>
<path d="M6627 8443 c-4 -3 -7 -105 -7 -225 l0 -218 665 0 665 0 0 225 0 224
-658 1 c-362 0 -661 -3 -665 -7z"/>
<path d="M1415 8423 c-87 -45 -130 -123 -123 -223 6 -79 43 -133 118 -173 47
-25 63 -28 111 -24 89 8 154 52 190 132 48 103 -3 239 -105 286 -51 23 -149
24 -191 2z"/>
<path d="M2305 8423 c-44 -23 -84 -63 -107 -107 -16 -31 -19 -53 -16 -107 5
-89 39 -142 117 -181 93 -47 178 -33 252 41 144 143 47 372 -157 371 -34 -1
-72 -8 -89 -17z"/>
<path d="M563 7758 c-24 -5 -43 -15 -44 -21 -1 -13 2 -61 4 -64 1 -1 27 5 57
13 101 26 195 11 219 -34 14 -26 14 -78 0 -104 -15 -28 -70 -48 -134 -48 l-55
0 0 -34 0 -33 71 -5 c83 -6 117 -26 138 -82 19 -51 2 -110 -41 -136 -60 -36
-169 -34 -260 5 -16 6 -18 1 -18 -33 0 -38 3 -41 38 -54 21 -7 78 -13 132 -13
77 1 103 5 135 22 75 40 105 89 105 171 0 63 -27 111 -77 138 l-40 21 33 18
c36 19 74 84 74 125 0 13 -9 43 -21 66 -30 63 -97 94 -198 93 -42 -1 -95 -5
-118 -11z"/>
<path d="M1448 7550 c-115 -35 -184 -155 -154 -271 17 -65 56 -112 118 -143
70 -35 129 -35 199 2 140 73 161 260 40 363 -61 53 -134 70 -203 49z"/>
<path d="M2327 7546 c-94 -34 -152 -117 -151 -216 3 -196 239 -293 378 -154
92 93 87 241 -13 326 -63 54 -141 70 -214 44z"/>
<path d="M3219 7547 c-97 -37 -154 -115 -154 -212 2 -195 224 -296 367 -167
93 84 104 211 27 305 -57 70 -164 102 -240 74z"/>
<path d="M3950 7335 l0 -225 670 0 670 0 0 225 0 225 -670 0 -670 0 0 -225z"/>
<path d="M5730 7335 l0 -225 670 0 670 0 0 225 0 225 -670 0 -670 0 0 -225z"/>
<path d="M613 6655 c-114 -176 -133 -211 -133 -245 l0 -40 145 0 145 0 0 -75
0 -75 40 0 40 0 0 75 0 75 45 0 c45 0 45 0 45 35 0 35 0 35 -45 35 l-45 0 0
210 0 210 -52 0 -53 0 -132 -205z m157 -45 l0 -170 -105 0 c-58 0 -105 3 -105
7 0 7 203 333 207 333 2 0 3 -76 3 -170z"/>
<path d="M1441 6656 c-171 -56 -204 -296 -54 -395 144 -96 342 9 343 182 0
149 -148 258 -289 213z"/>
<path d="M2328 6654 c-91 -28 -148 -111 -148 -211 0 -79 30 -137 93 -180 93
-63 198 -53 277 26 86 86 93 204 18 296 -57 69 -154 97 -240 69z"/>
<path d="M3222 6656 c-132 -43 -193 -186 -132 -311 78 -160 310 -162 392 -2
56 109 15 242 -92 297 -50 26 -117 32 -168 16z"/>
<path d="M4122 6661 c-141 -36 -212 -205 -136 -328 120 -194 408 -116 408 112
0 118 -76 204 -194 218 -25 3 -60 2 -78 -2z"/>
<path d="M4840 6445 l0 -225 668 2 667 3 0 220 0 220 -667 3 -668 2 0 -225z"/>
<path d="M520 5810 c0 -88 1 -160 3 -160 1 0 24 7 51 15 134 41 235 -8 243
-117 5 -69 -20 -112 -84 -140 -51 -23 -115 -20 -192 7 l-42 15 3 -43 c3 -41 4
-42 53 -55 71 -19 190 -11 242 16 84 44 124 136 102 240 -22 107 -110 168
-234 160 l-65 -4 0 78 0 78 130 0 130 0 0 35 0 35 -170 0 -170 0 0 -160z"/>
<path d="M1446 5770 c-124 -37 -191 -187 -137 -306 38 -84 151 -146 233 -129
113 25 188 114 188 222 -1 144 -147 254 -284 213z"/>
<path d="M2327 5766 c-94 -34 -147 -110 -147 -209 0 -72 17 -113 66 -161 92
-89 240 -80 322 19 75 92 69 210 -16 294 -67 67 -143 86 -225 57z"/>
<path d="M3217 5766 c-122 -45 -183 -181 -134 -297 60 -142 260 -179 364 -67
31 33 63 107 63 147 1 150 -157 268 -293 217z"/>
<path d="M4108 5766 c-59 -21 -87 -44 -118 -92 -37 -59 -45 -115 -25 -182 33
-108 149 -178 253 -152 173 42 236 239 118 368 -51 57 -158 84 -228 58z"/>
<path d="M4996 5766 c-76 -29 -126 -83 -147 -159 -32 -118 57 -249 184 -271
59 -11 140 17 187 64 47 47 74 124 64 187 -19 131 -168 223 -288 179z"/>
<path d="M639 5063 c-89 -46 -134 -128 -146 -268 -12 -145 36 -288 111 -335
69 -42 181 -36 247 12 75 56 99 197 49 288 -56 101 -187 131 -285 64 l-38 -25
6 45 c13 93 65 159 135 172 34 7 112 -4 155 -21 14 -6 17 -1 17 33 0 39 -1 40
-44 51 -78 19 -147 14 -207 -16z m159 -307 c37 -34 37 -35 37 -111 0 -76 0
-77 -39 -112 -35 -33 -42 -35 -87 -31 -60 6 -95 35 -110 92 -21 76 10 164 65
186 48 20 95 11 134 -24z"/>
<path d="M1290 4665 l0 -225 665 0 665 0 0 225 0 225 -665 0 -665 0 0 -225z"/>
<path d="M3216 4875 c-113 -40 -172 -149 -143 -263 49 -187 295 -227 398 -64
59 93 47 195 -30 272 -67 66 -142 85 -225 55z"/>
<path d="M4120 4881 c-103 -32 -163 -109 -164 -211 -3 -227 296 -309 411 -113
97 166 -66 379 -247 324z"/>
<path d="M4992 4877 c-130 -49 -187 -203 -119 -320 49 -84 144 -126 239 -106
200 43 236 317 54 411 -48 24 -130 32 -174 15z"/>
<path d="M5880 4877 c-53 -17 -123 -93 -139 -149 -35 -123 42 -250 167 -277
198 -42 341 183 221 348 -51 71 -164 107 -249 78z"/>
<path d="M500 4175 l0 -35 150 0 c83 0 150 -3 150 -7 0 -5 -47 -129 -104 -278
-57 -148 -102 -273 -99 -277 7 -13 58 -9 75 5 15 12 238 585 238 613 0 12 -34
14 -205 14 l-205 0 0 -35z"/>
<path d="M1290 3780 l0 -220 665 0 665 0 0 220 0 220 -665 0 -665 0 0 -220z"/>
<path d="M3060 3796 c0 -112 3 -211 6 -220 6 -14 74 -16 670 -16 l664 0 0 220
0 220 -670 0 -670 0 0 -204z"/>
<path d="M4991 3989 c-18 -6 -54 -31 -81 -58 -76 -76 -89 -174 -35 -267 38
-64 95 -98 175 -102 77 -5 124 14 178 69 40 41 66 122 56 176 -25 141 -155
221 -293 182z"/>
<path d="M5876 3985 c-92 -32 -156 -141 -142 -238 28 -186 261 -253 385 -111
41 46 52 76 53 139 1 93 -42 161 -127 201 -56 27 -111 30 -169 9z"/>
<path d="M6766 3985 c-81 -29 -145 -119 -146 -206 0 -64 43 -146 98 -184 58
-40 158 -48 219 -17 50 26 97 79 113 127 20 61 9 148 -26 198 -56 80 -165 115
-258 82z"/>
<path d="M616 3306 c-134 -50 -154 -220 -33 -283 l32 -16 -25 -9 c-60 -22
-100 -84 -100 -153 0 -115 81 -185 214 -185 138 0 216 68 216 187 0 64 -27
112 -78 139 l-42 22 34 20 c101 60 98 204 -5 262 -53 29 -156 37 -213 16z
m181 -90 c25 -29 31 -92 13 -127 -24 -43 -109 -63 -165 -37 -30 14 -55 55 -55
92 0 73 45 108 129 103 44 -3 59 -9 78 -31z m-16 -263 c31 -18 59 -67 59 -103
0 -12 -7 -37 -16 -55 -34 -73 -160 -88 -216 -26 -51 57 -31 164 36 191 36 15
106 11 137 -7z"/>
<path d="M1290 2890 l0 -220 665 0 665 0 0 220 0 220 -665 0 -665 0 0 -220z"/>
<path d="M3060 2890 l0 -220 670 0 670 0 0 220 0 220 -670 0 -670 0 0 -220z"/>
<path d="M4840 2890 l0 -220 670 0 670 0 0 220 0 220 -670 0 -670 0 0 -220z"/>
<path d="M6742 3084 c-85 -42 -136 -144 -118 -238 10 -54 65 -127 115 -153 80
-42 189 -27 255 35 91 86 87 250 -8 329 -71 58 -161 68 -244 27z"/>
<path d="M7629 3082 c-201 -105 -127 -412 99 -412 129 0 221 91 222 219 0 169
-171 272 -321 193z"/>
<path d="M605 2411 c-47 -22 -89 -64 -105 -106 -20 -52 -15 -149 10 -200 50
-103 186 -136 284 -70 l36 24 0 -28 c0 -76 -49 -151 -116 -177 -39 -15 -54
-16 -98 -7 -28 6 -59 14 -68 18 -15 6 -18 1 -18 -33 0 -40 0 -40 51 -52 157
-38 294 50 328 212 26 119 5 278 -47 352 -54 79 -168 108 -257 67z m160 -73
c103 -81 54 -268 -71 -268 -131 0 -173 216 -53 277 38 20 93 16 124 -9z"/>
<path d="M1290 2000 l0 -220 665 0 665 0 0 220 0 220 -665 0 -665 0 0 -220z"/>
<path d="M3060 2000 l0 -220 670 0 670 0 0 220 0 220 -670 0 -670 0 0 -220z"/>
<path d="M4840 2000 l0 -220 670 0 670 0 0 220 0 220 -670 0 -670 0 0 -220z"/>
<path d="M6620 2000 l0 -220 665 0 665 0 0 220 0 220 -665 0 -665 0 0 -220z"/>
<path d="M8525 2200 c-155 -76 -168 -291 -23 -387 36 -24 51 -28 118 -28 67 0
82 4 118 28 145 95 132 313 -23 386 -57 27 -136 27 -190 1z"/>
<path d="M625 1521 c-50 -23 -78 -53 -107 -116 -21 -45 -23 -65 -23 -195 0
-130 2 -150 23 -195 29 -63 57 -93 107 -116 80 -37 165 -20 223 46 53 60 72
131 72 265 0 134 -19 205 -72 265 -58 66 -143 83 -223 46z m134 -66 c108 -55
108 -435 0 -490 -47 -25 -87 -19 -124 18 -44 44 -59 101 -59 227 0 126 15 183
59 227 37 37 77 43 124 18z"/>
<path d="M4847 1333 c-4 -3 -7 -105 -7 -225 l0 -218 670 0 670 0 -2 223 -3
222 -661 3 c-363 1 -664 -1 -667 -5z"/>
<path d="M1290 1110 l0 -220 665 0 665 0 0 220 0 220 -665 0 -665 0 0 -220z"/>
<path d="M3060 1110 l0 -220 670 0 670 0 0 220 0 220 -670 0 -670 0 0 -220z"/>
<path d="M6620 1110 l0 -220 665 0 665 0 0 220 0 220 -665 0 -665 0 0 -220z"/>
<path d="M8400 1110 l0 -220 665 0 665 0 0 220 0 220 -665 0 -665 0 0 -220z"/>
</g>
</svg>
